<?xml version="1.0" encoding="utf-8"?>
<!-- Generator: Adobe Illustrator 24.0.3, SVG Export Plug-In . SVG Version: 6.00 Build 0)  -->
<svg version="1.1" id="Layer_1" xmlns="http://www.w3.org/2000/svg" xmlns:xlink="http://www.w3.org/1999/xlink" x="0px" y="0px"
	 viewBox="0 0 693 183" style="enable-background:new 0 0 693 183;" xml:space="preserve">
<style type="text/css">
	.st0{filter:url(#Adobe_OpacityMaskFilter);}
	.st1{fill-rule:evenodd;clip-rule:evenodd;fill:#FFFFFF;}
	.st2{mask:url(#pktlogorounded_rgb-b_1_);fill-rule:evenodd;clip-rule:evenodd;fill:#363636;}
	.st3{fill-rule:evenodd;clip-rule:evenodd;fill:#EF4056;}
	.st4{filter:url(#Adobe_OpacityMaskFilter_1_);}
	.st5{mask:url(#pktlogorounded_rgb-d_1_);fill-rule:evenodd;clip-rule:evenodd;fill:#363636;}
	.st6{fill-rule:evenodd;clip-rule:evenodd;fill:#363636;}
	.st7{filter:url(#Adobe_OpacityMaskFilter_2_);}
	.st8{mask:url(#pktlogorounded_rgb-f_1_);fill-rule:evenodd;clip-rule:evenodd;fill:#363636;}
</style>
<g transform="translate(0 -1)">
	<g transform="translate(145 41.939)">
		<defs>
			<filter id="Adobe_OpacityMaskFilter" filterUnits="userSpaceOnUse" x="0" y="0.9" width="96.6" height="141.1">
				<feColorMatrix  type="matrix" values="1 0 0 0 0  0 1 0 0 0  0 0 1 0 0  0 0 0 1 0"/>
			</filter>
		</defs>
		<mask maskUnits="userSpaceOnUse" x="0" y="0.9" width="96.6" height="141.1" id="pktlogorounded_rgb-b_1_">
			<g class="st0">
				<polygon id="pktlogorounded_rgb-a_1_" class="st1" points="0,0.9 96.7,0.9 96.7,142 0,142 				"/>
			</g>
		</mask>
		<path class="st2" d="M48.8,86.3c-19.3,0-35.5-16.3-35.5-36.2c0-20.1,16.1-36.8,35.5-36.8c19.7,0,35.5,16.7,35.5,36.8
			C84.3,70,68.5,86.3,48.8,86.3 M49,1.7C34.4,1.7,21.4,9.9,12.2,21L11.9,7.8C11.7,3.2,9.4,0.9,6,0.9c-3.6,0-6,2.8-6,6.8v128
			c0,3.8,2.6,6.4,6.2,6.4c3.8,0,6-2.8,6-6.6V79.5C21.4,90.4,34.4,97.9,49,97.9c26.6,0,47.7-21.4,47.7-47.8S75.7,1.7,49,1.7"/>
	</g>
	<path class="st3" d="M84.1,84.3l-25.5,24c-1.3,1.5-3.4,2.1-4.9,2.1c-1.9,0-3.8-0.6-5.3-2.1l-25.1-24c-2.6-2.8-3-7.5,0-10.5
		c2.8-2.6,7.5-3,10.3,0l20.1,19.3l20.5-19.3c2.6-3,7.3-2.6,9.9,0C86.7,76.8,86.7,81.5,84.1,84.3 M97,44.5H10.3
		C4.7,44.5,0,48.8,0,54.5v32.1c0,29.1,24,53.3,53.7,53.3c29.5,0,53.3-24.2,53.3-53.3V54.5C106.9,48.8,102.4,44.5,97,44.5"/>
	<g transform="translate(462 .939)">
		<defs>
			<filter id="Adobe_OpacityMaskFilter_1_" filterUnits="userSpaceOnUse" x="0.3" y="0.1" width="73.8" height="139.1">
				<feColorMatrix  type="matrix" values="1 0 0 0 0  0 1 0 0 0  0 0 1 0 0  0 0 0 1 0"/>
			</filter>
		</defs>
		<mask maskUnits="userSpaceOnUse" x="0.3" y="0.1" width="73.8" height="139.1" id="pktlogorounded_rgb-d_1_">
			<g class="st4">
				<polygon id="pktlogorounded_rgb-c_1_" class="st1" points="0.3,0.1 74.1,0.1 74.1,139.2 0.3,139.2 				"/>
			</g>
		</mask>
		<path class="st5" d="M33.3,86.3l34.9-31.5c3.2-2.8,3.6-6.9,1.1-9.6c-2.6-2.8-6.6-2.1-9.4,0.6L12.5,90.4V7.2c0-4.3-1.9-7.1-5.8-7.1
			c-4.3,0-6.4,2.8-6.4,7.1V132c0,4.1,2.4,6.9,6.4,6.9c3.6,0,5.8-2.8,5.8-6.9V105l12.2-11L63,136.7c2.4,2.6,6.6,3.6,9.2,1.1
			c3-2.8,2.1-6.6-0.2-9.2L33.3,86.3z"/>
	</g>
	<path class="st6" d="M300.2,128.2c-19.3,0-35.5-16.3-35.5-36.2c0-20.1,16.1-36.8,35.5-36.8c19.7,0,35.5,16.7,35.5,36.8
		C335.7,111.9,319.9,128.2,300.2,128.2 M300.6,43.6c-27.2,0-48.2,22-48.2,48.4s21,47.8,48.2,47.8c25.5,0,47.7-21.4,47.7-47.8
		S325.9,43.6,300.6,43.6"/>
	<g transform="translate(632 18.939)">
		<defs>
			<filter id="Adobe_OpacityMaskFilter_2_" filterUnits="userSpaceOnUse" x="0.7" y="0.3" width="60" height="120.6">
				<feColorMatrix  type="matrix" values="1 0 0 0 0  0 1 0 0 0  0 0 1 0 0  0 0 0 1 0"/>
			</filter>
		</defs>
		<mask maskUnits="userSpaceOnUse" x="0.7" y="0.3" width="60" height="120.6" id="pktlogorounded_rgb-f_1_">
			<g class="st7">
				<polygon id="pktlogorounded_rgb-e_1_" class="st1" points="0.7,0.3 60.7,0.3 60.7,120.9 0.7,120.9 				"/>
			</g>
		</mask>
		<path class="st8" d="M55.5,102.7c-1.9,0-3.8,1.1-4.9,2.1c-2.6,2.3-5.8,4.5-10.3,4.5c-7.7,0-12-4.7-12-15.4V36.1l23.8,0.4
			c3.4,0,5.6-2.1,5.6-5.3c0-3.4-2.3-5.4-5.6-5.4L28.3,26V6.6c0-3.8-2.6-6.4-5.8-6.4c-3.4,0-6.2,2.6-6.2,6.4V26L6.1,25.8
			c-3.2,0-5.4,2.1-5.4,5.4c0,3,2.4,5.4,5.4,5.3l10.1-0.4v58.2c0,18.2,11.1,26.6,23.8,26.6c7.9,0,13.9-3,18-7.3
			c1.3-1.5,2.6-3.2,2.6-5.4C60.7,105,58.7,102.7,55.5,102.7"/>
	</g>
	<path class="st6" d="M552.3,85.2c2.8-19.7,17.3-30,33.7-30c17.4,0,29.6,14.6,30.4,30H552.3z M586,43.6c-26.6,0-46.5,22-46.5,48.4
		s20.3,47.8,46.7,47.8c13.1,0,25.9-4.9,34.3-13.1c1.9-1.9,3.4-3.9,3.4-6c0-3-1.9-5.4-5.4-5.4c-1.9,0-3.8,0.8-5.3,2.1
		c-7.9,6.9-15.9,10.9-27,10.9c-17.2,0-32.6-13.1-34.2-32.6h67c6.4,0,9.9-3.4,9.9-8.8C628.9,65.7,610.5,43.6,586,43.6z M440.2,110.2
		c-1.7,0-3.6,1.3-4.7,2.8c-5.3,6.9-16.5,15.2-29.1,15.2c-18.8,0-34.9-14.8-34.9-36.2c0-22.9,16.1-36.6,34.9-36.6
		c13.7,0,21.2,6.6,27.6,14.3c1.1,1.3,2.8,2.6,4.9,2.6c2.8,0,5.6-2.1,5.6-4.9c0-2.1-1.3-4.1-2.4-5.8c-7.7-11.1-20.6-17.4-35.6-17.4
		c-26.1,0-47.5,21.4-47.5,47.8c0,26.1,21.4,47.8,47.5,47.8c16.1,0,30-9.4,37.3-19.1c1.3-1.7,2.1-3.4,2.1-4.9
		C445.8,112.5,443.4,110.2,440.2,110.2"/>
</g>
</svg>
